<svg viewBox="0 0 117 117" xmlns="http://www.w3.org/2000/svg" fill-rule="evenodd" clip-rule="evenodd" stroke-linejoin="round" stroke-miterlimit="2"><g fill="#1f96f7"><path d="M58.333 0c-18.383 0-20.56.071-27.82.402-7.038.321-10.856 1.513-13.4 2.502-3.495 1.358-5.988 2.981-8.608 5.601s-4.243 5.113-5.601 8.608c-.988 2.543-2.181 6.362-2.502 13.4C.071 37.772 0 39.95 0 58.333c0 18.383.071 20.561.402 27.82.321 7.038 1.514 10.857 2.502 13.4 1.358 3.495 2.981 5.988 5.601 8.608s5.113 4.243 8.608 5.601c2.543.989 6.362 2.181 13.4 2.502 7.259.331 9.436.402 27.82.402 18.385 0 20.562-.071 27.821-.402 7.037-.321 10.856-1.513 13.4-2.502 3.494-1.358 5.988-2.981 8.607-5.601 2.62-2.62 4.244-5.113 5.602-8.608.988-2.543 2.18-6.362 2.501-13.4.332-7.259.403-9.437.403-27.82 0-18.383-.071-20.561-.403-27.82-.321-7.038-1.513-10.857-2.501-13.4-1.359-3.495-2.982-5.988-5.602-8.608-2.619-2.62-5.113-4.243-8.607-5.601-2.544-.989-6.363-2.181-13.4-2.502C78.894.071 76.716 0 58.333 0zm0 4.167c18.258 0 20.421.068 27.631.397 6.342.29 9.789 1.333 12.081 2.223 2.91 1.132 4.988 2.482 7.17 4.664 2.182 2.182 3.533 4.261 4.664 7.171.891 2.292 1.934 5.739 2.223 12.081.329 7.21.398 9.373.398 27.63 0 18.258-.069 20.42-.398 27.63-.289 6.342-1.332 9.789-2.223 12.081-1.131 2.911-2.482 4.989-4.664 7.171-2.182 2.182-4.26 3.532-7.171 4.664-2.292.89-5.739 1.934-12.08 2.223-7.209.329-9.372.398-27.631.398s-20.421-.069-27.63-.398c-6.342-.289-9.789-1.333-12.081-2.223-2.911-1.132-4.988-2.482-7.171-4.664-2.182-2.182-3.532-4.26-4.663-7.171-.891-2.292-1.934-5.739-2.224-12.081-.329-7.21-.397-9.372-.397-27.63 0-18.257.068-20.42.397-27.63.29-6.342 1.333-9.789 2.224-12.081 1.131-2.911 2.481-4.989 4.663-7.171 2.183-2.182 4.26-3.532 7.171-4.664 2.292-.89 5.739-1.933 12.081-2.223 7.21-.329 9.373-.397 27.63-.397z"/><path d="M58.333 86.832c15.74 0 28.5-12.759 28.5-28.499 0-15.74-12.76-28.499-28.5-28.499-15.739 0-28.499 12.759-28.499 28.499 0 15.74 12.76 28.499 28.499 28.499zm0-4.166c-13.438 0-24.332-10.894-24.332-24.333C34.001 44.894 44.895 34 58.333 34c13.439 0 24.333 10.894 24.333 24.333 0 13.439-10.894 24.333-24.333 24.333zm44.928-58.982c0-5.677-4.602-10.278-10.278-10.278s-10.278 4.601-10.278 10.278c0 5.676 4.602 10.277 10.278 10.277s10.278-4.601 10.278-10.277zm-4.167 0a6.111 6.111 0 11-12.222 0 6.111 6.111 0 0112.222 0z"/></g></svg>