<svg viewBox="0 0 122 117" xmlns="http://www.w3.org/2000/svg" fill-rule="evenodd" clip-rule="evenodd" stroke-linejoin="round" stroke-miterlimit="2"><path d="M30.912 38.638c0-1.15-.933-2.083-2.083-2.083H3.539c-1.15 0-2.083.933-2.083 2.083v75.945c0 1.151.933 2.084 2.083 2.084h25.29c1.15 0 2.083-.933 2.083-2.084V38.638zm39.161 4.649c1.051-1.103 2.364-2.279 3.945-3.526 2.003-1.579 4.451-2.818 7.357-3.693 2.811-.846 5.936-1.276 9.375-1.276 9.379 0 16.906 3.149 22.61 9.374 5.614 6.126 8.518 15.069 8.518 26.889v43.528a2.084 2.084 0 01-2.083 2.084H94.582a2.084 2.084 0 01-2.084-2.084V73.967c0-4.859-.868-8.681-2.742-11.434-1.694-2.488-4.377-3.649-7.972-3.649-2.692 0-4.957.704-6.772 2.178a14.244 14.244 0 00-4.235 5.684c-.489 1.352-.704 3.174-.704 5.458v42.379a2.084 2.084 0 01-2.084 2.084H42.776a2.082 2.082 0 01-2.083-2.094c.102-20.381.153-36.905.153-49.572 0-12.646-.025-20.193-.076-22.641l-.076-3.678a2.084 2.084 0 012.082-2.127h25.213c1.151 0 2.084.933 2.084 2.083v4.649zm47.638 69.213V71.055c0-10.558-2.409-18.602-7.423-24.074-4.922-5.372-11.445-8.022-19.538-8.022-2.998 0-5.724.362-8.174 1.099-2.357.71-4.353 1.693-5.978 2.975-1.696 1.337-3.049 2.575-4.052 3.721a29.96 29.96 0 00-2.522 3.365 2.082 2.082 0 01-2.035 1.638h-.153a2.084 2.084 0 01-1.93-2.865v-8.17H44.904l.032 1.551c.051 2.457.077 10.033.077 22.728 0 12.235-.048 28.068-.143 47.499h21.036V72.204c0-2.908.343-5.214.97-6.924l.03-.076a18.35 18.35 0 015.48-7.377c2.526-2.051 5.652-3.11 9.398-3.11 5.192 0 8.971 1.879 11.416 5.471 2.264 3.327 3.465 7.908 3.465 13.779V112.5h21.046zM5.623 40.722V112.5h21.123V40.722H5.623zM32.521 15.16c.06 4.344-1.452 7.97-4.517 10.887-2.999 2.854-6.928 4.329-11.82 4.329h-.153c-4.801 0-8.647-1.482-11.574-4.351C1.494 23.122 0 19.513 0 15.188c0-4.394 1.544-8.025 4.602-10.905C7.602 1.458 11.503 0 16.337 0c4.852 0 8.721 1.47 11.643 4.305 2.956 2.867 4.482 6.48 4.541 10.855zm-4.166.056c.043 3.115-1.026 5.721-3.223 7.812-2.263 2.153-5.257 3.181-8.948 3.181h-.153c-3.578 0-6.476-1.021-8.658-3.16-2.146-2.103-3.206-4.727-3.206-7.861 0-3.167 1.087-5.795 3.291-7.871 2.263-2.131 5.233-3.15 8.879-3.15 3.63 0 6.556 1.008 8.742 3.129 2.153 2.088 3.233 4.733 3.276 7.92zm4.166-.056v-.001.001z" fill="#1f96f7"/></svg>