<svg viewBox="0 0 117 114" xmlns="http://www.w3.org/2000/svg" fill-rule="evenodd" clip-rule="evenodd" stroke-linejoin="round" stroke-miterlimit="2"><path d="M21.951 83.027c.685.573 1.367 1.291 2.036 2.163 1.172 1.525 2.021 2.92 2.565 4.173l.794 1.841c.495 1.448 1.328 2.623 2.51 3.518 1.24.941 2.578 1.548 4.018 1.808 1.641.296 3.225.457 4.752.48 1.473.021 2.693-.048 3.661-.223l1.7-.296a2.08 2.08 0 012.44 2.052c0 1.85.013 4.004.037 6.462.024 2.478.037 3.816.037 4.012 0 1.492-.545 2.733-1.623 3.728-1.031.952-2.579 1.427-4.722 1.03l-.277-.071c-11.746-3.898-21.33-10.921-28.748-21.073C3.712 82.477 0 71.045 0 58.333c0-10.585 2.611-20.346 7.828-29.285 5.213-8.933 12.287-16.007 21.22-21.22C37.987 2.611 47.748 0 58.333 0s20.346 2.611 29.285 7.828c8.934 5.213 16.007 12.287 21.221 21.22 5.216 8.939 7.828 18.7 7.828 29.285 0 12.712-3.712 24.144-11.132 34.298-7.417 10.152-17.001 17.175-28.748 21.073-.09.03-.183.054-.276.071-2.143.397-3.691-.078-4.723-1.03-1.077-.995-1.622-2.236-1.622-3.728 0-.147.012-2.019.037-5.617.024-3.584.036-6.863.036-9.837 0-3.998-.945-6.97-3.088-8.825a2.082 2.082 0 011.145-3.647c2.667-.281 5.065-.7 7.194-1.261 2.067-.545 4.2-1.436 6.403-2.663 2.129-1.185 3.91-2.64 5.337-4.374 1.44-1.75 2.594-4.086 3.502-6.989.945-3.017 1.407-6.485 1.407-10.4 0-5.271-1.746-9.834-5.245-13.688a2.082 2.082 0 01-.388-2.185c1.5-3.688 1.403-7.788-.186-12.302-.96-.004-2.176.337-3.667.9-2.451.925-4.579 1.938-6.361 3.035l-2.784 1.758a2.087 2.087 0 01-1.673.245c-4.36-1.219-8.861-1.827-13.502-1.827s-9.141.608-13.501 1.827a2.083 2.083 0 01-1.741-.29 64.118 64.118 0 00-3.01-1.911c-1.227-.74-3.164-1.623-5.804-2.665-1.632-.645-2.935-1.047-3.934-1.061-1.585 4.509-1.681 8.605-.182 12.291a2.082 2.082 0 01-.388 2.185c-3.499 3.854-5.245 8.417-5.245 13.688 0 3.913.461 7.367 1.405 10.359.912 2.892 2.062 5.237 3.485 7.016 1.399 1.749 3.163 3.208 5.283 4.388 2.203 1.227 4.336 2.118 6.402 2.663 2.129.561 4.528.98 7.195 1.261a2.082 2.082 0 011.195 3.602c-1.59 1.467-2.534 3.591-2.942 6.321a2.081 2.081 0 01-1.165 1.573 16.606 16.606 0 01-3.766 1.258c-1.292.269-2.825.41-4.6.41-1.994 0-3.983-.622-5.947-1.921-1.841-1.218-3.43-2.973-4.707-5.251-.766-1.291-1.74-2.342-2.93-3.148a15.446 15.446 0 00-1.485-.908zm53.673 26.672c10.842-3.63 19.69-10.141 26.547-19.526 6.888-9.426 10.329-20.04 10.329-31.84 0-9.825-2.418-18.887-7.26-27.184-4.845-8.303-11.419-14.877-19.722-19.722-8.297-4.842-17.359-7.26-27.185-7.26-9.825 0-18.887 2.418-27.184 7.26-8.303 4.845-14.877 11.419-19.722 19.722-4.842 8.297-7.26 17.359-7.26 27.184 0 11.8 3.441 22.414 10.328 31.84 6.858 9.385 15.705 15.896 26.547 19.526.271.046.516.064.737.046.108-.009.208-.001.273-.062a.864.864 0 00.282-.666l-.067-8.014c-1.039.134-2.274.194-3.704.173a33.306 33.306 0 01-5.429-.546c-2.075-.375-4.009-1.233-5.796-2.587-1.821-1.381-3.126-3.18-3.904-5.402l-.703-1.617c-.431-.993-1.12-2.088-2.049-3.297-.799-1.041-1.577-1.783-2.395-2.155l-.862-.568a7.474 7.474 0 01-1.323-1.218 6.107 6.107 0 01-.992-1.561c-.332-.774-.291-1.482-.014-2.118.212-.487.596-.979 1.274-1.36.581-.328 1.618-.598 3.145-.598.103 0 .207.008.309.023l1.564.238c1.177.235 2.652.9 4.386 2.076 1.692 1.147 3.085 2.634 4.201 4.514.943 1.681 2.064 2.977 3.397 3.859 1.21.8 2.419 1.229 3.648 1.229 1.447 0 2.697-.103 3.75-.323a12.756 12.756 0 001.869-.536c.35-1.688.888-3.18 1.605-4.481a46.375 46.375 0 01-4.203-.889c-2.377-.627-4.834-1.641-7.367-3.051-2.616-1.457-4.783-3.268-6.509-5.426-1.702-2.127-3.116-4.909-4.206-8.365-1.058-3.356-1.598-7.226-1.598-11.613 0-5.916 1.833-11.09 5.492-15.524-1.507-4.592-1.198-9.685 1.028-15.276a2.082 2.082 0 011.298-1.213c1.67-.537 4.229-.307 7.628 1.034 2.927 1.156 5.067 2.153 6.428 2.974a80.13 80.13 0 012.406 1.504 54.148 54.148 0 0113.692-1.73c4.708 0 9.283.58 13.723 1.738l2.031-1.283c2.006-1.234 4.369-2.369 7.095-3.397 3.178-1.2 5.626-1.38 7.305-.84.592.19 1.068.635 1.298 1.213 2.227 5.591 2.535 10.684 1.028 15.276 3.66 4.434 5.492 9.608 5.492 15.524 0 4.385-.539 8.266-1.596 11.645-1.094 3.494-2.528 6.285-4.262 8.392-1.747 2.123-3.92 3.915-6.528 5.367-2.533 1.41-4.99 2.424-7.366 3.051a46.194 46.194 0 01-4.123.876c1.294 2.311 1.976 5.245 1.976 8.828 0 2.983-.012 6.271-.037 9.865l-.036 5.589c0 .266.09.489.282.666.065.061.165.053.273.062.221.018.466 0 .736-.046z" fill="#1f96f7"/></svg>