<svg viewBox="0 0 117 77" xmlns="http://www.w3.org/2000/svg" fill-rule="evenodd" clip-rule="evenodd" stroke-linejoin="round" stroke-miterlimit="2"><path d="M116.667 14.93A14.93 14.93 0 00101.736 0H14.93A14.93 14.93 0 000 14.93v46.848a14.93 14.93 0 0014.93 14.93h86.806a14.931 14.931 0 0014.931-14.93V14.93zm-70.11 25.989L8.553 70.449a10.764 10.764 0 006.377 2.092h86.806c2.222 0 4.373-.686 6.168-1.942l-37.42-29.678a21.607 21.607 0 01-23.927-.002zm63.845-32.373L73.873 38.29l36.93 29.289a10.767 10.767 0 001.697-5.801V14.93c0-2.311-.743-4.545-2.098-6.384zM6.384 8.387a10.764 10.764 0 00-2.217 6.543v46.848c0 1.987.549 3.917 1.564 5.587l37.428-29.082L6.384 8.387zm100.904-2.678a10.76 10.76 0 00-5.552-1.542H14.93c-1.9 0-3.749.502-5.368 1.434l37.962 30.86a17.436 17.436 0 0022.007-.008l37.757-30.744z" fill="#1f96f7"/></svg>