<svg viewBox="0 0 169 246" xmlns="http://www.w3.org/2000/svg" fill-rule="evenodd" clip-rule="evenodd" stroke-linejoin="round" stroke-miterlimit="2"><path d="M93.477 11.342v82.002l-20.296 37.022V11.342h20.296zm3.97 157.668l13.111 24.11c.356.62 8.28 14.242 21.203 18.295l-4.469 21.993a24.05 24.05 0 01-16.571-12.095L89.79 183.014l7.657-14.004zm-51.771 11.213c-5.187 9.468-8.662 15.354-13.709 16.753l-15.445-76.039H0v11.342h7.248l22.934 112.906h4.635a35.413 35.413 0 0031.079-18.431l17.433-31.914 17.437 31.914a35.411 35.411 0 0031.078 18.431h4.632l22.938-112.906h8.605v-11.342h-17.876l-16.102 79.264c-6.613-2.646-11.959-9.815-13.577-12.605l-16.337-30.031-.612.333 10.96-20.057-9.955-5.437-48.579 88.906a24.046 24.046 0 01-16.575 12.098l-5.131-25.248c10.318-2.284 15.713-12.129 21.384-22.488l6.22-11.203v.182l7.894-14.398 7.592-13.671-.076-.042 27.57-50.292V11.342h50.394v12.496h11.343V0H.102v23.838h11.343V11.342h50.394v139.762l-16.163 29.119z" fill="#1f96f7" fill-opacity=".51" fill-rule="nonzero"/></svg>