<?xml version="1.0" encoding="UTF-8" standalone="no"?><!DOCTYPE svg PUBLIC "-//W3C//DTD SVG 1.1//EN" "http://www.w3.org/Graphics/SVG/1.1/DTD/svg11.dtd"><svg width="100%" height="100%" viewBox="0 0 122 117" version="1.1" xmlns="http://www.w3.org/2000/svg" xmlns:xlink="http://www.w3.org/1999/xlink" xml:space="preserve" xmlns:serif="http://www.serif.com/" style="fill-rule:evenodd;clip-rule:evenodd;stroke-linejoin:round;stroke-miterlimit:2;"><path d="M30.912,38.638c0,-1.15 -0.933,-2.083 -2.083,-2.083l-25.29,0c-1.15,0 -2.083,0.933 -2.083,2.083l0,75.945c0,1.151 0.933,2.084 2.083,2.084l25.29,0c1.15,0 2.083,-0.933 2.083,-2.084l0,-75.945Zm39.161,4.649c1.051,-1.103 2.364,-2.279 3.945,-3.526c2.003,-1.579 4.451,-2.818 7.357,-3.693c2.811,-0.846 5.936,-1.276 9.375,-1.276c9.379,0 16.906,3.149 22.61,9.374c5.614,6.126 8.518,15.069 8.518,26.889l0,43.528c0,1.151 -0.933,2.084 -2.083,2.084l-25.213,0c-1.151,0 -2.084,-0.933 -2.084,-2.084c0,0 0,-40.616 0,-40.616c0,-4.859 -0.868,-8.681 -2.742,-11.434c-1.694,-2.488 -4.377,-3.649 -7.972,-3.649c-2.692,0 -4.957,0.704 -6.772,2.178c-1.886,1.531 -3.297,3.426 -4.235,5.684c-0.489,1.352 -0.704,3.174 -0.704,5.458l0,42.379c0,1.151 -0.933,2.084 -2.084,2.084l-25.213,0c-0.554,0 -1.085,-0.221 -1.476,-0.614c-0.391,-0.393 -0.61,-0.926 -0.607,-1.48c0.102,-20.381 0.153,-36.905 0.153,-49.572c0,-12.646 -0.025,-20.193 -0.076,-22.641l-0.076,-3.678c-0.012,-0.56 0.202,-1.101 0.594,-1.502c0.392,-0.4 0.928,-0.625 1.488,-0.625l25.213,0c1.151,0 2.084,0.933 2.084,2.083l0,4.649Zm47.638,69.213l0,-41.445c0,-10.558 -2.409,-18.602 -7.423,-24.074c-4.922,-5.372 -11.445,-8.022 -19.538,-8.022c-2.998,0 -5.724,0.362 -8.174,1.099c-2.357,0.71 -4.353,1.693 -5.978,2.975c-1.696,1.337 -3.049,2.575 -4.052,3.721c-0.859,0.981 -1.699,2.104 -2.522,3.365c-0.203,0.937 -1.037,1.638 -2.035,1.638l-0.153,0c-0.757,0 -1.455,-0.411 -1.822,-1.073c-0.308,-0.556 -0.343,-1.215 -0.108,-1.792l0,-8.17l-21.002,0l0.032,1.551c0.051,2.457 0.077,10.033 0.077,22.728c0,12.235 -0.048,28.068 -0.143,47.499l21.036,0l0,-40.296c0,-2.908 0.343,-5.214 0.97,-6.924l0.03,-0.076c1.208,-2.934 3.035,-5.392 5.48,-7.377c2.526,-2.051 5.652,-3.11 9.398,-3.11c5.192,0 8.971,1.879 11.416,5.471c2.264,3.327 3.465,7.908 3.465,13.779l0,38.533l21.046,0Zm-112.088,-71.778l0,71.778l21.123,0l0,-71.778l-21.123,0Zm26.898,-25.562c0.06,4.344 -1.452,7.97 -4.517,10.887c-2.999,2.854 -6.928,4.329 -11.82,4.329l-0.153,0c-4.801,0 -8.647,-1.482 -11.574,-4.351c-2.963,-2.903 -4.457,-6.512 -4.457,-10.837c0,-4.394 1.544,-8.025 4.602,-10.905c3,-2.825 6.901,-4.283 11.735,-4.283c4.852,0 8.721,1.47 11.643,4.305c2.956,2.867 4.482,6.48 4.541,10.855Zm-4.166,0.056c0.043,3.115 -1.026,5.721 -3.223,7.812c-2.263,2.153 -5.257,3.181 -8.948,3.181l-0.153,0c-3.578,0 -6.476,-1.021 -8.658,-3.16c-2.146,-2.103 -3.206,-4.727 -3.206,-7.861c0,-3.167 1.087,-5.795 3.291,-7.871c2.263,-2.131 5.233,-3.15 8.879,-3.15c3.63,0 6.556,1.008 8.742,3.129c2.153,2.088 3.233,4.733 3.276,7.92l0,0Zm4.166,-0.056l0,-0.001l0,0.001Z" style="fill:#1f96f7;"/></svg>