<?xml version="1.0" encoding="UTF-8" standalone="no"?><!DOCTYPE svg PUBLIC "-//W3C//DTD SVG 1.1//EN" "http://www.w3.org/Graphics/SVG/1.1/DTD/svg11.dtd"><svg width="100%" height="100%" viewBox="0 0 117 114" version="1.1" xmlns="http://www.w3.org/2000/svg" xmlns:xlink="http://www.w3.org/1999/xlink" xml:space="preserve" xmlns:serif="http://www.serif.com/" style="fill-rule:evenodd;clip-rule:evenodd;stroke-linejoin:round;stroke-miterlimit:2;"><path d="M21.951,83.027c0.685,0.573 1.367,1.291 2.036,2.163c1.172,1.525 2.021,2.92 2.565,4.173l0.794,1.841c0.495,1.448 1.328,2.623 2.51,3.518c1.24,0.941 2.578,1.548 4.018,1.808c1.641,0.296 3.225,0.457 4.752,0.48c1.473,0.021 2.693,-0.048 3.661,-0.223l1.7,-0.296c0.606,-0.106 1.227,0.062 1.698,0.458c0.471,0.396 0.742,0.979 0.742,1.594c0,1.85 0.013,4.004 0.037,6.462c0.024,2.478 0.037,3.816 0.037,4.012c0,1.492 -0.545,2.733 -1.623,3.728c-1.031,0.952 -2.579,1.427 -4.722,1.03l-0.277,-0.071c-11.746,-3.898 -21.33,-10.921 -28.748,-21.073c-7.419,-10.154 -11.131,-21.586 -11.131,-34.298c0,-10.585 2.611,-20.346 7.828,-29.285c5.213,-8.933 12.287,-16.007 21.22,-21.22c8.939,-5.217 18.7,-7.828 29.285,-7.828c10.585,0 20.346,2.611 29.285,7.828c8.934,5.213 16.007,12.287 21.221,21.22c5.216,8.939 7.828,18.7 7.828,29.285c0,12.712 -3.712,24.144 -11.132,34.298c-7.417,10.152 -17.001,17.175 -28.748,21.073c-0.09,0.03 -0.183,0.054 -0.276,0.071c-2.143,0.397 -3.691,-0.078 -4.723,-1.03c-1.077,-0.995 -1.622,-2.236 -1.622,-3.728c0,-0.147 0.012,-2.019 0.037,-5.617c0.024,-3.584 0.036,-6.863 0.036,-9.837c0,-3.998 -0.945,-6.97 -3.088,-8.825c-0.628,-0.543 -0.873,-1.408 -0.625,-2.2c0.249,-0.792 0.944,-1.361 1.77,-1.447c2.667,-0.281 5.065,-0.7 7.194,-1.261c2.067,-0.545 4.2,-1.436 6.403,-2.663c2.129,-1.185 3.91,-2.64 5.337,-4.374c1.44,-1.75 2.594,-4.086 3.502,-6.989c0.945,-3.017 1.407,-6.485 1.407,-10.4c0,-5.271 -1.746,-9.834 -5.245,-13.688c-0.539,-0.593 -0.69,-1.443 -0.388,-2.185c1.5,-3.688 1.403,-7.788 -0.186,-12.302c-0.96,-0.004 -2.176,0.337 -3.667,0.9c-2.451,0.925 -4.579,1.938 -6.361,3.035l-2.784,1.758c-0.498,0.314 -1.106,0.403 -1.673,0.245c-4.36,-1.219 -8.861,-1.827 -13.502,-1.827c-4.641,0 -9.141,0.608 -13.501,1.827c-0.595,0.166 -1.233,0.06 -1.741,-0.29c-0.756,-0.519 -1.759,-1.155 -3.01,-1.911c-1.227,-0.74 -3.164,-1.623 -5.804,-2.665c-1.632,-0.645 -2.935,-1.047 -3.934,-1.061c-1.585,4.509 -1.681,8.605 -0.182,12.291c0.302,0.742 0.151,1.592 -0.388,2.185c-3.499,3.854 -5.245,8.417 -5.245,13.688c0,3.913 0.461,7.367 1.405,10.359c0.912,2.892 2.062,5.237 3.485,7.016c1.399,1.749 3.163,3.208 5.283,4.388c2.203,1.227 4.336,2.118 6.402,2.663c2.129,0.561 4.528,0.98 7.195,1.261c0.813,0.085 1.501,0.639 1.759,1.416c0.257,0.776 0.037,1.631 -0.564,2.186c-1.59,1.467 -2.534,3.591 -2.942,6.321c-0.102,0.686 -0.539,1.275 -1.165,1.573c-1.172,0.558 -2.427,0.979 -3.766,1.258c-1.292,0.269 -2.825,0.41 -4.6,0.41c-1.994,0 -3.983,-0.622 -5.947,-1.921c-1.841,-1.218 -3.43,-2.973 -4.707,-5.251c-0.766,-1.291 -1.74,-2.342 -2.93,-3.148c-0.539,-0.366 -1.032,-0.671 -1.485,-0.908Zm53.673,26.672c10.842,-3.63 19.69,-10.141 26.547,-19.526c6.888,-9.426 10.329,-20.04 10.329,-31.84c0,-9.825 -2.418,-18.887 -7.26,-27.184c-4.845,-8.303 -11.419,-14.877 -19.722,-19.722c-8.297,-4.842 -17.359,-7.26 -27.185,-7.26c-9.825,0 -18.887,2.418 -27.184,7.26c-8.303,4.845 -14.877,11.419 -19.722,19.722c-4.842,8.297 -7.26,17.359 -7.26,27.184c0,11.8 3.441,22.414 10.328,31.84c6.858,9.385 15.705,15.896 26.547,19.526c0.271,0.046 0.516,0.064 0.737,0.046c0.108,-0.009 0.208,-0.001 0.273,-0.062c0.192,-0.177 0.282,-0.4 0.282,-0.666l-0.067,-8.014c-1.039,0.134 -2.274,0.194 -3.704,0.173c-1.744,-0.026 -3.554,-0.207 -5.429,-0.546c-2.075,-0.375 -4.009,-1.233 -5.796,-2.587c-1.821,-1.381 -3.126,-3.18 -3.904,-5.402l-0.703,-1.617c-0.431,-0.993 -1.12,-2.088 -2.049,-3.297c-0.799,-1.041 -1.577,-1.783 -2.395,-2.155l-0.862,-0.568c-0.474,-0.339 -0.916,-0.744 -1.323,-1.218c-0.444,-0.519 -0.77,-1.042 -0.992,-1.561c-0.332,-0.774 -0.291,-1.482 -0.014,-2.118c0.212,-0.487 0.596,-0.979 1.274,-1.36c0.581,-0.328 1.618,-0.598 3.145,-0.598c0.103,0 0.207,0.008 0.309,0.023l1.564,0.238c1.177,0.235 2.652,0.9 4.386,2.076c1.692,1.147 3.085,2.634 4.201,4.514c0.943,1.681 2.064,2.977 3.397,3.859c1.21,0.8 2.419,1.229 3.648,1.229c1.447,0 2.697,-0.103 3.75,-0.323c0.649,-0.135 1.272,-0.313 1.869,-0.536c0.35,-1.688 0.888,-3.18 1.605,-4.481c-1.495,-0.248 -2.895,-0.545 -4.203,-0.889c-2.377,-0.627 -4.834,-1.641 -7.367,-3.051c-2.616,-1.457 -4.783,-3.268 -6.509,-5.426c-1.702,-2.127 -3.116,-4.909 -4.206,-8.365c-1.058,-3.356 -1.598,-7.226 -1.598,-11.613c0,-5.916 1.833,-11.09 5.492,-15.524c-1.507,-4.592 -1.198,-9.685 1.028,-15.276c0.23,-0.578 0.706,-1.023 1.298,-1.213c1.67,-0.537 4.229,-0.307 7.628,1.034c2.927,1.156 5.067,2.153 6.428,2.974c0.931,0.562 1.733,1.064 2.406,1.504c4.431,-1.153 8.995,-1.73 13.692,-1.73c4.708,0 9.283,0.58 13.723,1.738l2.031,-1.283c2.006,-1.234 4.369,-2.369 7.095,-3.397c3.178,-1.2 5.626,-1.38 7.305,-0.84c0.592,0.19 1.068,0.635 1.298,1.213c2.227,5.591 2.535,10.684 1.028,15.276c3.66,4.434 5.492,9.608 5.492,15.524c0,4.385 -0.539,8.266 -1.596,11.645c-1.094,3.494 -2.528,6.285 -4.262,8.392c-1.747,2.123 -3.92,3.915 -6.528,5.367c-2.533,1.41 -4.99,2.424 -7.366,3.051c-1.285,0.338 -2.659,0.631 -4.123,0.876c1.294,2.311 1.976,5.245 1.976,8.828c0,2.983 -0.012,6.271 -0.037,9.865c-0.024,3.58 -0.036,5.443 -0.036,5.589c0,0.266 0.09,0.489 0.282,0.666c0.065,0.061 0.165,0.053 0.273,0.062c0.221,0.018 0.466,0 0.736,-0.046Z" style="fill:#1f96f7;"/></svg>