<?xml version="1.0" encoding="UTF-8" standalone="no"?><!DOCTYPE svg PUBLIC "-//W3C//DTD SVG 1.1//EN" "http://www.w3.org/Graphics/SVG/1.1/DTD/svg11.dtd"><svg width="100%" height="100%" viewBox="0 0 117 77" version="1.1" xmlns="http://www.w3.org/2000/svg" xmlns:xlink="http://www.w3.org/1999/xlink" xml:space="preserve" xmlns:serif="http://www.serif.com/" style="fill-rule:evenodd;clip-rule:evenodd;stroke-linejoin:round;stroke-miterlimit:2;"><g><path d="M116.667,14.93c0,-3.959 -1.573,-7.757 -4.373,-10.557c-2.8,-2.8 -6.598,-4.373 -10.558,-4.373c-21.65,0 -65.155,0 -86.806,0c-3.96,0 -7.757,1.573 -10.557,4.373c-2.8,2.8 -4.373,6.598 -4.373,10.557c0,13.204 0,33.644 0,46.848c0,3.959 1.573,7.757 4.373,10.557c2.8,2.8 6.597,4.373 10.557,4.373c21.651,0 65.156,0 86.806,0c3.96,0 7.758,-1.573 10.558,-4.373c2.8,-2.8 4.373,-6.598 4.373,-10.557l0,-46.848Zm-70.11,25.989l-38.004,29.53c1.837,1.351 4.069,2.092 6.377,2.092c21.651,0 65.156,0 86.806,0c2.222,0 4.373,-0.686 6.168,-1.942l-37.42,-29.678c-7.236,4.818 -16.691,4.818 -23.927,-0.002Zm63.845,-32.373l-36.529,29.744l36.93,29.289c1.099,-1.718 1.697,-3.729 1.697,-5.801l0,-46.848c0,-2.311 -0.743,-4.545 -2.098,-6.384Zm-104.018,-0.159c-1.43,1.868 -2.217,4.165 -2.217,6.543c0,13.204 0,33.644 0,46.848c0,1.987 0.549,3.917 1.564,5.587l37.428,-29.082l-36.775,-29.896Zm100.904,-2.678c-1.662,-1.001 -3.579,-1.542 -5.552,-1.542c-21.65,0 -65.155,0 -86.806,0c-1.9,0 -3.749,0.502 -5.368,1.434l37.962,30.86c6.411,5.212 15.6,5.208 22.007,-0.008l37.757,-30.744Z" style="fill:#1f96f7;"/></g></svg>