<?xml version="1.0" encoding="UTF-8" standalone="no"?><!DOCTYPE svg PUBLIC "-//W3C//DTD SVG 1.1//EN" "http://www.w3.org/Graphics/SVG/1.1/DTD/svg11.dtd"><svg width="100%" height="100%" viewBox="0 0 117 117" version="1.1" xmlns="http://www.w3.org/2000/svg" xmlns:xlink="http://www.w3.org/1999/xlink" xml:space="preserve" xmlns:serif="http://www.serif.com/" style="fill-rule:evenodd;clip-rule:evenodd;stroke-linejoin:round;stroke-miterlimit:2;"><g><path d="M58.333,0c-18.383,0 -20.56,0.071 -27.82,0.402c-7.038,0.321 -10.856,1.513 -13.4,2.502c-3.495,1.358 -5.988,2.981 -8.608,5.601c-2.62,2.62 -4.243,5.113 -5.601,8.608c-0.988,2.543 -2.181,6.362 -2.502,13.4c-0.331,7.259 -0.402,9.437 -0.402,27.82c0,18.383 0.071,20.561 0.402,27.82c0.321,7.038 1.514,10.857 2.502,13.4c1.358,3.495 2.981,5.988 5.601,8.608c2.62,2.62 5.113,4.243 8.608,5.601c2.543,0.989 6.362,2.181 13.4,2.502c7.259,0.331 9.436,0.402 27.82,0.402c18.385,0 20.562,-0.071 27.821,-0.402c7.037,-0.321 10.856,-1.513 13.4,-2.502c3.494,-1.358 5.988,-2.981 8.607,-5.601c2.62,-2.62 4.244,-5.113 5.602,-8.608c0.988,-2.543 2.18,-6.362 2.501,-13.4c0.332,-7.259 0.403,-9.437 0.403,-27.82c0,-18.383 -0.071,-20.561 -0.403,-27.82c-0.321,-7.038 -1.513,-10.857 -2.501,-13.4c-1.359,-3.495 -2.982,-5.988 -5.602,-8.608c-2.619,-2.62 -5.113,-4.243 -8.607,-5.601c-2.544,-0.989 -6.363,-2.181 -13.4,-2.502c-7.26,-0.331 -9.438,-0.402 -27.821,-0.402Zm0,4.167c18.258,0 20.421,0.068 27.631,0.397c6.342,0.29 9.789,1.333 12.081,2.223c2.91,1.132 4.988,2.482 7.17,4.664c2.182,2.182 3.533,4.261 4.664,7.171c0.891,2.292 1.934,5.739 2.223,12.081c0.329,7.21 0.398,9.373 0.398,27.63c0,18.258 -0.069,20.42 -0.398,27.63c-0.289,6.342 -1.332,9.789 -2.223,12.081c-1.131,2.911 -2.482,4.989 -4.664,7.171c-2.182,2.182 -4.26,3.532 -7.171,4.664c-2.292,0.89 -5.739,1.934 -12.08,2.223c-7.209,0.329 -9.372,0.398 -27.631,0.398c-18.259,0 -20.421,-0.069 -27.63,-0.398c-6.342,-0.289 -9.789,-1.333 -12.081,-2.223c-2.911,-1.132 -4.988,-2.482 -7.171,-4.664c-2.182,-2.182 -3.532,-4.26 -4.663,-7.171c-0.891,-2.292 -1.934,-5.739 -2.224,-12.081c-0.329,-7.21 -0.397,-9.372 -0.397,-27.63c0,-18.257 0.068,-20.42 0.397,-27.63c0.29,-6.342 1.333,-9.789 2.224,-12.081c1.131,-2.911 2.481,-4.989 4.663,-7.171c2.183,-2.182 4.26,-3.532 7.171,-4.664c2.292,-0.89 5.739,-1.933 12.081,-2.223c7.21,-0.329 9.373,-0.397 27.63,-0.397Z" style="fill:#1f96f7;"/><path d="M58.333,86.832c15.74,0 28.5,-12.759 28.5,-28.499c0,-15.74 -12.76,-28.499 -28.5,-28.499c-15.739,0 -28.499,12.759 -28.499,28.499c0,15.74 12.76,28.499 28.499,28.499Zm0,-4.166c-13.438,0 -24.332,-10.894 -24.332,-24.333c0,-13.439 10.894,-24.333 24.332,-24.333c13.439,0 24.333,10.894 24.333,24.333c0,13.439 -10.894,24.333 -24.333,24.333Z" style="fill:#1f96f7;"/><path d="M103.261,23.684c0,-5.677 -4.602,-10.278 -10.278,-10.278c-5.676,0 -10.278,4.601 -10.278,10.278c0,5.676 4.602,10.277 10.278,10.277c5.676,0 10.278,-4.601 10.278,-10.277Zm-4.167,0c0,3.375 -2.736,6.111 -6.111,6.111c-3.375,0 -6.111,-2.736 -6.111,-6.111c0,-3.375 2.736,-6.111 6.111,-6.111c3.375,0 6.111,2.736 6.111,6.111Z" style="fill:#1f96f7;"/></g></svg>