<?xml version="1.0" encoding="UTF-8" standalone="no"?><!DOCTYPE svg PUBLIC "-//W3C//DTD SVG 1.1//EN" "http://www.w3.org/Graphics/SVG/1.1/DTD/svg11.dtd"><svg width="100%" height="100%" viewBox="0 0 169 246" version="1.1" xmlns="http://www.w3.org/2000/svg" xmlns:xlink="http://www.w3.org/1999/xlink" xml:space="preserve" xmlns:serif="http://www.serif.com/" style="fill-rule:evenodd;clip-rule:evenodd;stroke-linejoin:round;stroke-miterlimit:2;"><path d="M93.477,11.342l0,82.002l-20.296,37.022l0,-119.024l20.296,0Zm3.97,157.668l13.111,24.11c0.356,0.62 8.28,14.242 21.203,18.295l-4.469,21.993c-6.972,-1.338 -13.089,-5.72 -16.571,-12.095l-20.931,-38.299l7.657,-14.004Zm-51.771,11.213c-5.187,9.468 -8.662,15.354 -13.709,16.753l-15.445,-76.039l-16.522,0l0,11.342l7.248,0l22.934,112.906l4.635,0c12.957,0 24.863,-7.066 31.079,-18.431l17.433,-31.914l17.437,31.914c6.212,11.365 18.125,18.431 31.078,18.431l4.632,0l22.938,-112.906l8.605,0l0,-11.342l-17.876,0l-16.102,79.264c-6.613,-2.646 -11.959,-9.815 -13.577,-12.605l-16.337,-30.031l-0.612,0.333l10.96,-20.057l-9.955,-5.437l-48.579,88.906c-3.482,6.378 -9.6,10.76 -16.575,12.098l-5.131,-25.248c10.318,-2.284 15.713,-12.129 21.384,-22.488l6.22,-11.203l0,0.182l7.894,-14.398l7.592,-13.671l-0.076,-0.042l27.57,-50.292l0,-84.906l50.394,0l0,12.496l11.343,0l0,-23.838l-166.454,0l0,23.838l11.343,0l0,-12.496l50.394,0l0,139.762l-16.163,29.119Z" style="fill:#1f96f7;fill-opacity:0.51;fill-rule:nonzero;"/></svg>